/* XPM */
static char * favicon_xpm[] = {
"16 16 3 1",
" 	c black",
".	c white",
"X	c blue",
" ..... .........",
" .... . ........",
" ....   ........",
" ... ... .......",
"   . ... .......",
"................",
".     .  . ... .",
"... ... ... . ..",
"... ...  ... ...",
"... ... ... . ..",
"... ...  . ... .",
"................",
".......X...X.X.X",
".......XX.XX.XX.",
"...   .X.X.X.XX.",
".......X...X.X.X"};
